HIERARCHY
ROOT Hips
{
	OFFSET 0.000000 0.000000 0.000000
	CHANNELS 6 Xposition Yposition Zposition Xrotation Yrotation Zrotation
	JOINT LeftUpLeg_virtual
	{
		OFFSET 0.000000 0.000000 0.000000
		CHANNELS 3 Xrotation Yrotation Zrotation
		JOINT LeftUpLeg
		{
			OFFSET 11.394100 -6.187798 -0.413800
			CHANNELS 3 Xrotation Yrotation Zrotation
			JOINT LeftLeg
			{
				OFFSET 0.430247 -32.302673 3.732800
				CHANNELS 3 Xrotation Yrotation Zrotation
				JOINT LeftFoot
				{
					OFFSET -0.430247 -48.264931 -6.423300
					CHANNELS 3 Xrotation Yrotation Zrotation
					JOINT LeftToeBase
					{
						OFFSET 4.230900 -16.068199 23.438400
						CHANNELS 3 Xrotation Yrotation Zrotation
						JOINT LeftToe_End
						{
							OFFSET 4.510700 0.695400 19.974600
							CHANNELS 3 Xrotation Yrotation Zrotation
							End Site
							{
								OFFSET 0 0 0
							}
						}
					}
				}
			}
		}
	}
	JOINT RightUpLeg_virtual
	{
		OFFSET 0.000000 0.000000 0.000000
		CHANNELS 3 Xrotation Yrotation Zrotation
		JOINT RightUpLeg
		{
			OFFSET -11.333700 -6.187798 -0.413800
			CHANNELS 3 Xrotation Yrotation Zrotation
			JOINT RightLeg
			{
				OFFSET -0.430392 -32.302628 3.733000
				CHANNELS 3 Xrotation Yrotation Zrotation
				JOINT RightFoot
				{
					OFFSET 0.430392 -48.264973 -6.423500
					CHANNELS 3 Xrotation Yrotation Zrotation
					JOINT RightToeBase
					{
						OFFSET -4.230900 -16.068199 23.438400
						CHANNELS 3 Xrotation Yrotation Zrotation
						JOINT RightToe_End
						{
							OFFSET -4.510700 0.695400 19.974600
							CHANNELS 3 Xrotation Yrotation Zrotation
							End Site
							{
								OFFSET 0 0 0
							}
						}
					}
				}
			}
		}
	}
	JOINT Spine_virtual
	{
		OFFSET 0.000000 0.000000 0.000000
		CHANNELS 3 Xrotation Yrotation Zrotation
		JOINT Spine
		{
			OFFSET -0.002400 12.777504 0.315300
			CHANNELS 3 Xrotation Yrotation Zrotation
			JOINT Spine1
			{
				OFFSET -0.002067 5.816869 0.032633
				CHANNELS 3 Xrotation Yrotation Zrotation
				JOINT Spine1_split
				{
					OFFSET -0.002067 5.816869 0.032633
					CHANNELS 3 Xrotation Yrotation Zrotation
					JOINT Spine2
					{
						OFFSET -0.002067 5.816869 0.032633
						CHANNELS 3 Xrotation Yrotation Zrotation
						JOINT Neck_virtual
						{
							OFFSET 0.000000 0.000000 0.000000
							CHANNELS 3 Xrotation Yrotation Zrotation
							JOINT Neck
							{
								OFFSET -0.003700 21.199493 -0.826900
								CHANNELS 3 Xrotation Yrotation Zrotation
								JOINT Head
								{
									OFFSET 0.000000 20.442200 4.834800
									CHANNELS 3 Xrotation Yrotation Zrotation
									JOINT HeadTop_End
									{
										OFFSET 0.000000 34.668396 4.968400
										CHANNELS 3 Xrotation Yrotation Zrotation
										End Site
										{
											OFFSET 0 0 0
										}
									}
								}
							}
						}
						JOINT LeftShoulder_virtual
						{
							OFFSET 0.000000 0.000000 0.000000
							CHANNELS 3 Xrotation Yrotation Zrotation
							JOINT LeftShoulder
							{
								OFFSET 3.288150 8.794197 -1.372250
								CHANNELS 3 Xrotation Yrotation Zrotation
								JOINT LeftShoulder_split
								{
									OFFSET 3.288150 8.794197 -1.372250
									CHANNELS 3 Xrotation Yrotation Zrotation
									JOINT LeftArm
									{
										OFFSET 11.953299 -2.279007 -0.146200
										CHANNELS 3 Xrotation Yrotation Zrotation
										JOINT LeftForeArm
										{
											OFFSET 18.448900 0.000000 0.000000
											CHANNELS 3 Xrotation Yrotation Zrotation
											JOINT LeftHand
											{
												OFFSET 29.527798 0.000000 0.000000
												CHANNELS 3 Xrotation Yrotation Zrotation
												End Site
												{
													OFFSET 0 0 0
												}
											}
										}
									}
								}
							}
						}
						JOINT RightShoulder_virtual
						{
							OFFSET 0.000000 0.000000 0.000000
							CHANNELS 3 Xrotation Yrotation Zrotation
							JOINT RightShoulder
							{
								OFFSET -3.249400 8.794197 -1.372250
								CHANNELS 3 Xrotation Yrotation Zrotation
								JOINT RightShoulder_split
								{
									OFFSET -3.249400 8.794197 -1.372250
									CHANNELS 3 Xrotation Yrotation Zrotation
									JOINT RightArm
									{
										OFFSET -11.953299 -2.279007 -0.146200
										CHANNELS 3 Xrotation Yrotation Zrotation
										JOINT RightForeArm
										{
											OFFSET -18.448900 0.000000 0.000000
											CHANNELS 3 Xrotation Yrotation Zrotation
											JOINT RightHand
											{
												OFFSET -29.527802 0.000000 0.000000
												CHANNELS 3 Xrotation Yrotation Zrotation
												End Site
												{
													OFFSET 0 0 0
												}
											}
										}
									}
								}
							}
						}
					}
				}
			}
		}
	}
}
MOTION
Frames: 4
Frame Time: 0.03333333
-0.932539 92.616524 2.134964 0.000000 0.000000 0.000000 -29.926440 -54.005602 -10.600441 -23.405392 2.587134 19.318787 46.433388 -11.972622 -0.642151 -0.254351 2.045092 -19.779173 -9.240982 -1.347040 2.365252 0.000000 0.000000 0.000000 -25.748673 -51.300325 -7.987667 -23.515882 2.663913 -21.286165 47.422113 2.406082 -7.763817 -11.241574 -4.473686 17.407048 -7.373960 2.869529 -0.188258 0.000000 0.000000 0.000000 -23.968389 -43.108814 -9.514151 13.569434 4.850146 -0.920529 12.200030 2.706182 -6.974316 1.710466 -0.397854 1.628910 0.000000 0.000000 0.000000 10.826437 2.252076 -5.277504 3.674925 -1.334788 0.037323 -17.019742 32.284945 -12.805165 0.000000 0.000000 0.000000 14.161169 1.624503 -4.869186 1.592532 -12.565893 6.547852 -8.077000 -1.404588 -2.635313 -25.860570 28.585930 -60.073180 170.553430 -53.506821 172.982792 0.000000 0.000000 0.000000 12.378873 1.771974 -4.462744 12.865969 27.293337 -0.876911 -6.398130 -3.407817 1.798152 -55.465019 41.408199 53.966971 168.869761 77.645413 -170.544496 0.000000 0.000000 0.000000 
-1.923851 92.373909 -0.516529 0.000000 0.000000 0.000000 -27.037357 -52.507851 -7.675640 -25.555627 3.153919 17.249499 42.191708 -10.463613 -0.768833 2.150202 1.184212 -16.378355 -8.696812 -1.122379 1.395077 0.000000 0.000000 0.000000 -24.047233 -49.993761 -6.060922 -24.203347 2.666322 -21.622627 51.510042 2.324604 -7.965334 -12.174522 -5.062212 16.248629 -5.713581 2.621546 -0.002527 0.000000 0.000000 0.000000 -22.288174 -42.440965 -7.554071 14.023921 4.388400 -1.502355 12.677173 2.692302 -7.032802 2.307927 0.411836 1.970832 0.000000 0.000000 0.000000 11.650092 2.042679 -5.438807 4.925473 -0.741992 -0.297129 -16.321775 30.634747 -12.267972 0.000000 0.000000 0.000000 14.850674 1.461897 -5.003704 1.821791 -12.699268 6.240310 -5.578351 -3.102930 -2.372745 -27.774252 26.934434 -58.228326 169.980158 -55.068281 172.309840 0.000000 0.000000 0.000000 12.794156 1.616112 -4.613384 12.599583 26.719714 -0.830565 -6.578371 -2.178691 2.721073 -56.399747 39.974307 54.671546 172.688410 75.404988 -174.188252 0.000000 0.000000 0.000000 
-2.796290 92.316284 -4.190670 0.000000 0.000000 0.000000 -21.663400 -48.507980 -2.690324 -29.477444 2.581009 15.080059 35.525077 -10.278669 -0.752064 10.716773 -2.365003 -16.698042 -7.984486 -1.193973 1.570117 0.000000 0.000000 0.000000 -20.463534 -46.372599 -2.248968 -25.179817 2.109016 -21.629073 56.516844 0.961977 -7.578738 -14.247407 -7.007317 13.025349 -4.872248 2.122941 0.795367 0.000000 0.000000 0.000000 -18.661404 -39.496433 -3.650683 16.590075 4.071469 -2.345755 13.203897 2.857876 -7.132750 2.898454 0.625272 2.640700 0.000000 0.000000 0.000000 12.433188 2.089609 -5.794310 3.950650 -0.532702 -1.123024 -17.385856 26.999497 -9.793737 0.000000 0.000000 0.000000 15.334589 1.596634 -5.272366 1.956715 -13.623847 4.771955 -4.303950 -4.762604 -1.449634 -30.009969 21.325676 -54.060387 169.994024 -56.393525 172.800753 0.000000 0.000000 0.000000 13.399822 1.682025 -5.012144 12.330219 25.663490 -1.441375 -7.373167 -1.736180 3.847678 -57.457170 36.347538 53.590030 177.018627 72.966542 -178.328016 0.000000 0.000000 0.000000 
-3.444439 92.708641 -8.376129 0.000000 0.000000 0.000000 -15.834318 -42.570196 2.356935 -34.748461 0.987063 13.396156 28.119561 -10.685529 -0.863299 22.703906 -7.379774 -18.590371 -8.477088 -1.492363 3.343187 0.000000 0.000000 0.000000 -16.210076 -41.033038 2.018352 -26.461362 1.026461 -21.262415 60.246312 -1.007983 -6.706773 -16.528114 -9.250251 8.840933 -5.074811 1.588802 1.807808 0.000000 0.000000 0.000000 -14.081002 -34.961279 0.800126 21.002550 3.808611 -3.155195 13.735062 3.110686 -7.139535 2.679106 0.253880 3.553317 0.000000 0.000000 0.000000 13.159763 2.350544 -6.098372 1.052989 -0.597607 -2.391193 -19.513207 21.842877 -6.257608 0.000000 0.000000 0.000000 15.571402 1.925255 -5.521925 2.048893 -15.154291 2.858660 -4.318090 -5.542570 -0.651646 -32.560642 13.136195 -48.568765 170.734730 -57.303416 174.407009 0.000000 0.000000 0.000000 14.088116 1.917051 -5.434180 12.185630 24.597316 -3.011640 -8.661241 -2.031996 4.893830 -58.598823 31.584010 50.143018 -179.317013 71.516739 178.244797 0.000000 0.000000 0.000000 
